<svg width="30" height="30" viewBox="0 0 30 30" fill="none" xmlns="http://www.w3.org/2000/svg">
<path d="M30 6.42849C30 5.29185 29.5485 4.20176 28.7447 3.39803C27.941 2.5943 26.8509 2.14277 25.7143 2.14277H24.6429V1.10147C24.6429 0.524904 24.1996 0.0300362 23.623 0.00124151C23.4781 -0.00573834 23.3333 0.0167666 23.1974 0.0673929C23.0615 0.118019 22.9373 0.195713 22.8323 0.295766C22.7273 0.395818 22.6437 0.516147 22.5866 0.649461C22.5295 0.782775 22.5 0.926298 22.5 1.07133V2.14277H7.5V1.10147C7.5 0.524904 7.0567 0.0300362 6.48013 0.00124151C6.33527 -0.00573834 6.19049 0.0167666 6.05458 0.0673929C5.91867 0.118019 5.79445 0.195713 5.68945 0.295766C5.58445 0.395818 5.50086 0.516147 5.44374 0.649461C5.38662 0.782775 5.35716 0.926298 5.35714 1.07133V2.14277H4.28571C3.14907 2.14277 2.05898 2.5943 1.25526 3.39803C0.451529 4.20176 0 5.29185 0 6.42849V7.23207C0 7.30311 0.0282206 7.37124 0.0784536 7.42147C0.128687 7.47171 0.196817 7.49993 0.267857 7.49993H29.7321C29.8032 7.49993 29.8713 7.47171 29.9215 7.42147C29.9718 7.37124 30 7.30311 30 7.23207V6.42849ZM0 25.7143C0 26.8509 0.451529 27.941 1.25526 28.7447C2.05898 29.5485 3.14907 30 4.28571 30H25.7143C26.8509 30 27.941 29.5485 28.7447 28.7447C29.5485 27.941 30 26.8509 30 25.7143V9.84368C30 9.7904 29.9788 9.73931 29.9412 9.70163C29.9035 9.66396 29.8524 9.64279 29.7991 9.64279H0.200893C0.147613 9.64279 0.096515 9.66396 0.0588403 9.70163C0.0211655 9.73931 0 9.7904 0 9.84368V25.7143ZM23.0357 11.7857C23.3536 11.7857 23.6643 11.8799 23.9286 12.0565C24.1929 12.2331 24.3989 12.4841 24.5205 12.7778C24.6422 13.0714 24.674 13.3946 24.612 13.7063C24.55 14.0181 24.3969 14.3045 24.1721 14.5292C23.9474 14.754 23.661 14.9071 23.3493 14.9691C23.0375 15.0311 22.7144 14.9993 22.4207 14.8776C22.127 14.756 21.876 14.55 21.6994 14.2857C21.5228 14.0214 21.4286 13.7107 21.4286 13.3928C21.4286 12.9666 21.5979 12.5578 21.8993 12.2564C22.2007 11.955 22.6095 11.7857 23.0357 11.7857ZM23.0357 17.1428C23.3536 17.1428 23.6643 17.2371 23.9286 17.4137C24.1929 17.5903 24.3989 17.8413 24.5205 18.1349C24.6422 18.4286 24.674 18.7517 24.612 19.0635C24.55 19.3753 24.3969 19.6616 24.1721 19.8864C23.9474 20.1112 23.661 20.2642 23.3493 20.3262C23.0375 20.3882 22.7144 20.3564 22.4207 20.2348C22.127 20.1131 21.876 19.9071 21.6994 19.6428C21.5228 19.3786 21.4286 19.0678 21.4286 18.75C21.4286 18.3237 21.5979 17.9149 21.8993 17.6135C22.2007 17.3121 22.6095 17.1428 23.0357 17.1428ZM17.6786 11.7857C17.9964 11.7857 18.3072 11.8799 18.5715 12.0565C18.8357 12.2331 19.0417 12.4841 19.1634 12.7778C19.285 13.0714 19.3168 13.3946 19.2548 13.7063C19.1928 14.0181 19.0398 14.3045 18.815 14.5292C18.5902 14.754 18.3039 14.9071 17.9921 14.9691C17.6804 15.0311 17.3572 14.9993 17.0635 14.8776C16.7699 14.756 16.5189 14.55 16.3423 14.2857C16.1657 14.0214 16.0714 13.7107 16.0714 13.3928C16.0714 12.9666 16.2408 12.5578 16.5422 12.2564C16.8435 11.955 17.2523 11.7857 17.6786 11.7857ZM17.6786 17.1428C17.9964 17.1428 18.3072 17.2371 18.5715 17.4137C18.8357 17.5903 19.0417 17.8413 19.1634 18.1349C19.285 18.4286 19.3168 18.7517 19.2548 19.0635C19.1928 19.3753 19.0398 19.6616 18.815 19.8864C18.5902 20.1112 18.3039 20.2642 17.9921 20.3262C17.6804 20.3882 17.3572 20.3564 17.0635 20.2348C16.7699 20.1131 16.5189 19.9071 16.3423 19.6428C16.1657 19.3786 16.0714 19.0678 16.0714 18.75C16.0714 18.3237 16.2408 17.9149 16.5422 17.6135C16.8435 17.3121 17.2523 17.1428 17.6786 17.1428ZM17.6786 22.5C17.9964 22.5 18.3072 22.5942 18.5715 22.7708C18.8357 22.9474 19.0417 23.1984 19.1634 23.4921C19.285 23.7858 19.3168 24.1089 19.2548 24.4207C19.1928 24.7324 19.0398 25.0188 18.815 25.2435C18.5902 25.4683 18.3039 25.6214 17.9921 25.6834C17.6804 25.7454 17.3572 25.7136 17.0635 25.5919C16.7699 25.4703 16.5189 25.2643 16.3423 25C16.1657 24.7357 16.0714 24.425 16.0714 24.1071C16.0714 23.6809 16.2408 23.2721 16.5422 22.9707C16.8435 22.6693 17.2523 22.5 17.6786 22.5ZM12.3214 17.1428C12.6393 17.1428 12.95 17.2371 13.2143 17.4137C13.4786 17.5903 13.6846 17.8413 13.8062 18.1349C13.9279 18.4286 13.9597 18.7517 13.8977 19.0635C13.8357 19.3753 13.6826 19.6616 13.4578 19.8864C13.2331 20.1112 12.9467 20.2642 12.635 20.3262C12.3232 20.3882 12.0001 20.3564 11.7064 20.2348C11.4127 20.1131 11.1617 19.9071 10.9851 19.6428C10.8085 19.3786 10.7143 19.0678 10.7143 18.75C10.7143 18.3237 10.8836 17.9149 11.185 17.6135C11.4864 17.3121 11.8952 17.1428 12.3214 17.1428ZM12.3214 22.5C12.6393 22.5 12.95 22.5942 13.2143 22.7708C13.4786 22.9474 13.6846 23.1984 13.8062 23.4921C13.9279 23.7858 13.9597 24.1089 13.8977 24.4207C13.8357 24.7324 13.6826 25.0188 13.4578 25.2435C13.2331 25.4683 12.9467 25.6214 12.635 25.6834C12.3232 25.7454 12.0001 25.7136 11.7064 25.5919C11.4127 25.4703 11.1617 25.2643 10.9851 25C10.8085 24.7357 10.7143 24.425 10.7143 24.1071C10.7143 23.6809 10.8836 23.2721 11.185 22.9707C11.4864 22.6693 11.8952 22.5 12.3214 22.5ZM6.96429 17.1428C7.28215 17.1428 7.59287 17.2371 7.85717 17.4137C8.12146 17.5903 8.32745 17.8413 8.44909 18.1349C8.57073 18.4286 8.60256 18.7517 8.54055 19.0635C8.47854 19.3753 8.32547 19.6616 8.10071 19.8864C7.87594 20.1112 7.58958 20.2642 7.27782 20.3262C6.96607 20.3882 6.64293 20.3564 6.34926 20.2348C6.05559 20.1131 5.80459 19.9071 5.628 19.6428C5.4514 19.3786 5.35714 19.0678 5.35714 18.75C5.35714 18.3237 5.52647 17.9149 5.82786 17.6135C6.12926 17.3121 6.53804 17.1428 6.96429 17.1428ZM6.96429 22.5C7.28215 22.5 7.59287 22.5942 7.85717 22.7708C8.12146 22.9474 8.32745 23.1984 8.44909 23.4921C8.57073 23.7858 8.60256 24.1089 8.54055 24.4207C8.47854 24.7324 8.32547 25.0188 8.10071 25.2435C7.87594 25.4683 7.58958 25.6214 7.27782 25.6834C6.96607 25.7454 6.64293 25.7136 6.34926 25.5919C6.05559 25.4703 5.80459 25.2643 5.628 25C5.4514 24.7357 5.35714 24.425 5.35714 24.1071C5.35714 23.6809 5.52647 23.2721 5.82786 22.9707C6.12926 22.6693 6.53804 22.5 6.96429 22.5Z" fill="#7D5B59"/>
</svg>
