<svg id="Layer_1" data-name="Layer 1" xmlns="http://www.w3.org/2000/svg" viewBox="0 0 34 24"><defs><style>.cls-1{fill:#7d5b59;fill-opacity:0.75;}</style></defs><path class="cls-1" d="M27.6,10A5.92,5.92,0,0,0,28,8a8,8,0,0,0-8-8,7.8,7.8,0,0,0-7,4.4A7.11,7.11,0,0,0,11,4,5,5,0,0,0,6,9a1.5,1.5,0,0,0,.2,1A7,7,0,0,0,7,24H27a7.09,7.09,0,0,0,7-7A7.13,7.13,0,0,0,27.6,10Zm-4.1-.13-7.95,7.79a1.2,1.2,0,0,1-.85.33h0a1.2,1.2,0,0,1-.84-.4L10.89,14.3A1,1,0,0,1,12.39,13l2.37,2.67L22.1,8.44a1,1,0,0,1,1.4,1.43Z" transform="translate(0 0)"/></svg>