<svg width="26" height="26" viewBox="0 0 26 26" fill="none" xmlns="http://www.w3.org/2000/svg">
<path d="M6.39065 0C7.12101 0 10.0424 6.57324 10.0424 7.3036C10.0424 8.76432 7.85137 10.225 7.12101 11.6858C6.39065 13.1465 7.85137 14.6072 9.31209 16.0679C9.88177 16.6376 12.2335 18.9894 13.6942 18.259C15.155 17.5286 16.6157 15.3376 18.0764 15.3376C18.8068 15.3376 25.38 18.259 25.38 18.9894C25.38 21.9108 23.1889 24.1019 20.9978 24.8322C18.8068 25.5626 17.346 25.5626 14.4246 24.8322C11.5032 24.1019 9.31209 23.3715 5.66029 19.7197C2.00849 16.0679 1.27813 13.8768 0.54777 10.9554C-0.18259 8.03396 -0.18259 6.57324 0.54777 4.38216C1.27813 2.19108 3.46921 0 6.39065 0Z" fill="#7D5B59"/>
</svg>
