<svg width="23" height="33" viewBox="0 0 23 33" fill="none" xmlns="http://www.w3.org/2000/svg">
<path d="M11.5 15.675C10.4107 15.675 9.36605 15.2404 8.59581 14.4668C7.82557 13.6932 7.39286 12.644 7.39286 11.55C7.39286 10.456 7.82557 9.40677 8.59581 8.63318C9.36605 7.8596 10.4107 7.425 11.5 7.425C12.5893 7.425 13.634 7.8596 14.4042 8.63318C15.1744 9.40677 15.6071 10.456 15.6071 11.55C15.6071 12.0917 15.5009 12.6281 15.2945 13.1286C15.0881 13.629 14.7856 14.0838 14.4042 14.4668C14.0228 14.8499 13.57 15.1537 13.0717 15.361C12.5734 15.5683 12.0394 15.675 11.5 15.675ZM11.5 0C8.45001 0 5.52494 1.21687 3.36827 3.38292C1.2116 5.54896 0 8.48675 0 11.55C0 20.2125 11.5 33 11.5 33C11.5 33 23 20.2125 23 11.55C23 8.48675 21.7884 5.54896 19.6317 3.38292C17.4751 1.21687 14.55 0 11.5 0Z" fill="#7D5B59"/>
</svg>
