<svg width="31" height="28" viewBox="0 0 31 28" fill="none" xmlns="http://www.w3.org/2000/svg">
<path d="M8.18848 13.8467C8.0665 14.3691 8 14.9131 8 15.4727C8 18.9372 10.473 21.8231 13.75 22.4639V24.8467H16.5V22.4639C19.777 21.8231 22.25 18.9372 22.25 15.4727C22.25 14.9131 22.1835 14.3691 22.0615 13.8467H28.875V24.8467C28.8749 25.5759 28.585 26.2754 28.0693 26.791C27.5536 27.3066 26.8543 27.5967 26.125 27.5967H4.125C3.39573 27.5967 2.69637 27.3066 2.18066 26.791C1.66501 26.2754 1.37508 25.5759 1.375 24.8467V13.8467H8.18848ZM11.082 0C12.2781 0.0137482 13.4746 0.55003 14.3408 1.77344L15.125 2.84668L15.9092 1.80176C18.7004 -2.07574 24.7504 1.10043 23.1416 5.59668H27.5C28.2292 5.59668 28.9286 5.88585 29.4443 6.40137C29.9601 6.91709 30.25 7.61733 30.25 8.34668V11.0967C30.2499 11.4611 30.1052 11.8106 29.8477 12.0684C29.5898 12.3262 29.2397 12.4717 28.875 12.4717H21.5879C20.6413 10.4366 18.7628 8.92288 16.5 8.48047V8.34668H13.75V8.48047C11.4872 8.92288 9.6087 10.4366 8.66211 12.4717H1.375C1.01033 12.4717 0.660206 12.3262 0.402344 12.0684C0.144762 11.8106 8.41194e-05 11.4611 0 11.0967V8.34668C0 7.61733 0.289939 6.91709 0.805664 6.40137C1.32136 5.88585 2.02081 5.59668 2.75 5.59668H7.1084C5.95347 2.48937 8.48345 -0.0134465 11.082 0ZM11 2.84668C10.6353 2.84668 10.2852 2.99116 10.0273 3.24902C9.76958 3.50687 9.625 3.85708 9.625 4.22168C9.62526 5.44522 11.1104 6.06344 11.9766 5.19727C12.8423 4.33097 12.2236 2.84668 11 2.84668ZM19.25 2.84668C18.8853 2.84668 18.5352 2.99116 18.2773 3.24902C18.0196 3.50687 17.875 3.85708 17.875 4.22168C17.8753 5.44522 19.3604 6.06344 20.2266 5.19727C21.0923 4.33097 20.4736 2.84668 19.25 2.84668Z" fill="#BBA8A7"/>
<path d="M14.5738 19.7602H15.6456V18.9945C16.156 18.9027 16.595 18.7036 16.9625 18.3973C17.33 18.0911 17.5138 17.6368 17.5138 17.0345C17.5138 16.6058 17.3913 16.2128 17.1462 15.8555C16.9013 15.4982 16.4113 15.1868 15.6762 14.9214C15.0638 14.7172 14.6401 14.5386 14.4053 14.3855C14.1705 14.2323 14.0531 14.0231 14.0531 13.7577C14.0531 13.4922 14.1476 13.283 14.3364 13.1298C14.5253 12.9767 14.7983 12.9002 15.1556 12.9002C15.4823 12.9002 15.7375 12.9793 15.9213 13.1375C16.105 13.2957 16.2377 13.4922 16.3194 13.727L17.2994 13.3289C17.1871 12.9716 16.9804 12.6603 16.6792 12.3948C16.3781 12.1294 16.0438 11.9814 15.6762 11.9508V11.1852H14.6044V11.9508C14.094 12.0631 13.6958 12.2877 13.41 12.6245C13.1242 12.9614 12.9813 13.3391 12.9813 13.7577C12.9813 14.2374 13.1216 14.6254 13.4023 14.9214C13.6831 15.2174 14.1246 15.4727 14.7269 15.687C15.37 15.9218 15.8166 16.1311 16.0667 16.3148C16.3168 16.4986 16.4419 16.7385 16.4419 17.0345C16.4419 17.3714 16.3219 17.619 16.082 17.7772C15.8421 17.9354 15.5538 18.0145 15.2169 18.0145C14.88 18.0145 14.5814 17.9099 14.3211 17.7006C14.0608 17.4914 13.8694 17.1774 13.7469 16.7589L12.7363 17.157C12.8792 17.647 13.1012 18.0426 13.4023 18.3438C13.7035 18.6449 14.094 18.8516 14.5738 18.9639V19.7602ZM15.125 21.5977C14.2777 21.5977 13.4815 21.4369 12.7363 21.1153C11.991 20.7937 11.3428 20.3573 10.7916 19.8061C10.2403 19.2548 9.80391 18.6066 9.48234 17.8614C9.16078 17.1162 9 16.3199 9 15.4727C9 14.6254 9.16078 13.8291 9.48234 13.0839C9.80391 12.3387 10.2403 11.6905 10.7916 11.1392C11.3428 10.588 11.991 10.1516 12.7363 9.83C13.4815 9.50844 14.2777 9.34766 15.125 9.34766C15.9723 9.34766 16.7685 9.50844 17.5138 9.83C18.259 10.1516 18.9072 10.588 19.4584 11.1392C20.0097 11.6905 20.4461 12.3387 20.7677 13.0839C21.0892 13.8291 21.25 14.6254 21.25 15.4727C21.25 16.3199 21.0892 17.1162 20.7677 17.8614C20.4461 18.6066 20.0097 19.2548 19.4584 19.8061C18.9072 20.3573 18.259 20.7937 17.5138 21.1153C16.7685 21.4369 15.9723 21.5977 15.125 21.5977ZM15.125 20.3727C16.4929 20.3727 17.6516 19.898 18.6009 18.9486C19.5503 17.9992 20.025 16.8406 20.025 15.4727C20.025 14.1047 19.5503 12.9461 18.6009 11.9967C17.6516 11.0473 16.4929 10.5727 15.125 10.5727C13.7571 10.5727 12.5984 11.0473 11.6491 11.9967C10.6997 12.9461 10.225 14.1047 10.225 15.4727C10.225 16.8406 10.6997 17.9992 11.6491 18.9486C12.5984 19.898 13.7571 20.3727 15.125 20.3727Z" fill="#BBA8A7"/>
</svg>
