<svg width="31" height="31" viewBox="0 0 31 31" fill="none" xmlns="http://www.w3.org/2000/svg">
<path d="M30.6446 0.821275V24.5134C29.7642 28.8695 23.2991 29.6448 20.6513 26.5173C18.8971 24.4477 19.7184 21.8459 21.9128 20.5385C23.8904 19.3624 26.4594 19.4018 28.4304 20.5647V7.76598L10.9603 9.75018V26.2874C10.8617 28.3767 9.17975 29.8616 7.26782 30.3806C6.88018 30.4857 6.49254 30.5383 6.10489 30.6237C5.69754 30.5974 5.25077 30.6566 4.84998 30.6237C2.93806 30.4595 0.704187 29.2111 0.15229 27.2729C-0.701837 24.2966 2.19562 22.089 4.88284 21.8853C6.26915 21.7802 7.52406 22.1022 8.73954 22.7198V3.12742C8.73954 2.85147 9.14033 2.33899 9.42285 2.25358C16.1836 1.4323 22.9837 0.670161 29.7642 0C30.2241 0.105123 30.4672 0.413923 30.6446 0.821275Z" fill="#7D5B59"/>
</svg>
