<svg width="32" height="32" viewBox="0 0 32 32" fill="none" xmlns="http://www.w3.org/2000/svg">
<g clip-path="url(#clip0_4_32)">
<path d="M2.04011 31.3926C0.905442 31.1359 0.115229 30.3322 0.01392 29.1502C0.0747056 22.4098 -0.107651 15.6423 0.101721 8.91541C0.371879 7.99687 1.15534 7.28095 2.12791 7.19315C2.70875 7.14587 6.16677 7.29446 6.34237 7.16613C6.78138 5.47089 6.92321 3.65408 7.34196 1.95884C7.80122 0.0879925 8.97641 -0.182166 10.7122 0.0879924C16.9731 1.06056 23.1665 2.58695 29.4206 3.6068C30.5485 3.91073 31.2847 4.93057 31.2037 6.10576L27.5093 25.7463C27.0432 27.1916 25.6114 27.6711 24.2133 27.2659V29.5082C24.2133 29.6163 23.9162 30.2444 23.8351 30.3592C23.4569 30.913 22.876 31.2034 22.2479 31.3858H2.04011V31.3926ZM7.9363 7.19315H22.3357C23.0584 7.19315 24.1931 8.37509 24.1998 9.13153L24.2201 18.1345L26.665 21.5588L26.7798 21.3967L29.5422 6.4232C29.4274 5.65325 28.9411 5.05215 28.1576 4.91707L10.3812 1.62114C9.44243 1.72245 8.91563 2.22224 8.68599 3.11376C8.34829 4.41052 8.21997 5.86937 7.94306 7.19315H7.9363ZM22.741 25.3072V10.2932C22.741 9.59755 22.025 8.75331 21.3024 8.72629H3.0532C2.44534 8.69928 1.54707 9.60431 1.54707 10.1716V20.4579L8.50364 15.98L12.583 20.0189L15.3656 18.4587L22.7342 25.3072H22.741Z" fill="#7D5B59"/>
<path d="M17.7359 16.0271C19.2876 16.0271 20.5455 14.7692 20.5455 13.2175C20.5455 11.6658 19.2876 10.4078 17.7359 10.4078C16.1842 10.4078 14.9262 11.6658 14.9262 13.2175C14.9262 14.7692 16.1842 16.0271 17.7359 16.0271Z" fill="#7D5B59"/>
<path d="M26.7794 9.26641C26.5633 10.3673 25.7258 11.198 24.6992 11.4547V9.13133C24.6789 8.11148 23.3214 6.70666 22.3421 6.70666H22.0787C22.7135 6.09205 23.6321 5.78812 24.5641 5.97048C26.0838 6.26765 27.0766 7.74677 26.7794 9.26641Z" fill="#7D5B59"/>
</g>
<defs>
<clipPath id="clip0_4_32">
<rect width="31.21" height="31.3924" fill="white"/>
</clipPath>
</defs>
</svg>
