<svg id="Layer_1" data-name="Layer 1" xmlns="http://www.w3.org/2000/svg" viewBox="0 0 24 24"><defs><style>.cls-1{fill:#7d5b59;}</style></defs><path class="cls-1" d="M21,11.62c.48.35.47.74,0,1.09-1.86,1.31-3.71,2.63-5.58,3.92a.93.93,0,0,1-.66.09c-.26-.06-.34-.32-.34-.6,0-1.33,0-2.66,0-4s0-2.61,0-3.92a.63.63,0,0,1,.31-.63.61.61,0,0,1,.7.08Z" transform="translate(-5 0)"/><path class="cls-1" d="M17,0A12,12,0,1,0,29,12,12,12,0,0,0,17,0Zm4.67,13.62c-1.89,1.34-3.79,2.68-5.69,4a1.68,1.68,0,0,1-1.87.12,1.63,1.63,0,0,1-.9-1.55v-4c0-1.31,0-2.61,0-3.91a1.74,1.74,0,0,1,.92-1.7,1.78,1.78,0,0,1,2,.21c1.85,1.32,3.74,2.61,5.59,4A1.72,1.72,0,0,1,21.67,13.62Z" transform="translate(-5 0)"/></svg>