<svg id="Layer_1" data-name="Layer 1" xmlns="http://www.w3.org/2000/svg" viewBox="0 0 29.5 24.01"><defs><style>.cls-1{fill:#7d5b59;}</style></defs><path class="cls-1" d="M.1,12A6.52,6.52,0,0,1,6.7,6.55H21.94l-5.7-5.46L16.16,1A.56.56,0,0,1,16,.33c.15-.33.45-.33.75-.33h3.58A2.28,2.28,0,0,1,22,.72c2.36,2.38,4.74,4.74,7.07,7.11a1,1,0,0,1,.21.21,1.12,1.12,0,0,1-.21,1.57l-7,7.09a2.35,2.35,0,0,1-1.8.75H16.71c-.3,0-.57,0-.71-.34a.5.5,0,0,1,.1-.57l5.71-5.64H6.49a2.19,2.19,0,0,0-2.1,2.26v4.36a2.19,2.19,0,0,0,2.26,2.12H9.93a1.09,1.09,0,0,1,1,1.16v2a.81.81,0,0,1,0,.22,1.09,1.09,0,0,1-1.21,1H6.59A6.55,6.55,0,0,1,0,17.45V13.12A7,7,0,0,1,.1,12Z" transform="translate(-0.04 0)"/></svg>