<?xml version="1.0" encoding="UTF-8"?>
<svg id="Layer_1" data-name="Layer 1" xmlns="http://www.w3.org/2000/svg" viewBox="0 0 82.53 77.17">
  <path d="M27.05,41.77h-1.91l-1.85-3.69h-4.25v3.69h-1.71v-9.16h7.59c.73,0,1.31.3,1.73.89.24.37.37.78.37,1.21v1.29c0,.73-.3,1.31-.91,1.71-.28.2-.58.31-.91.35l1.85,3.71ZM19.05,34.32v2.04h5.51c.34,0,.57-.15.7-.45.04-.09.05-.19.05-.28v-.56c0-.35-.16-.58-.47-.7-.09-.03-.19-.05-.28-.05h-5.51Z"/>
  <path d="M30.07,35.39c0,.33.15.55.45.68.09.03.18.05.26.05h5.31c.73,0,1.31.3,1.73.89.24.36.37.76.37,1.19v1.49c0,.72-.3,1.29-.89,1.71-.36.25-.76.37-1.19.37h-7.43v-1.71h7.06c.33,0,.55-.16.68-.47.04-.09.05-.18.05-.26v-.73c0-.33-.15-.56-.45-.7-.1-.04-.21-.05-.31-.05h-5.28c-.72,0-1.29-.3-1.71-.89-.25-.36-.37-.76-.37-1.19v-1.07c0-.72.3-1.29.89-1.71.36-.24.76-.37,1.19-.37h7.41v1.71h-7.04c-.34,0-.56.16-.68.47-.03.09-.05.18-.05.26v.33Z"/>
  <path d="M49.76,32.61h1.98l-5.3,9.16h-1.57l-5.3-9.16h1.98l4.11,7.1,4.11-7.1Z"/>
  <path d="M53.48,32.63l.02-.02h7.99c.73,0,1.31.3,1.73.91.24.36.37.76.37,1.19v1.8c0,.73-.3,1.31-.91,1.73-.36.23-.76.36-1.19.37h-6.28l-.02.02v3.13l-.02.02h-1.68l-.02-.02v-9.12ZM61.1,36.89c.35,0,.59-.16.72-.47.04-.1.05-.2.05-.3v-1.05c0-.33-.15-.56-.45-.7-.1-.03-.2-.05-.3-.05h-5.91l-.02.02v2.53l.02.02h5.89Z"/>
</svg>