<svg width="51" height="14" viewBox="0 0 51 14" fill="none" xmlns="http://www.w3.org/2000/svg">
<path d="M0 13.7675V0H8.03105C8.98712 0 9.79979 0.334627 10.469 1.00388C11.1383 1.67313 11.4729 2.4858 11.4729 3.44187V5.73646C11.4729 6.42483 11.2721 7.05584 10.8706 7.62949C10.469 8.20314 9.98144 8.64293 9.4078 8.94888L11.4729 13.7675H8.03105L6.08065 9.17833H3.44188V13.7675H0ZM13.7675 13.7675V10.3256H20.6513V8.60469H16.0621C15.412 8.60469 14.867 8.38479 14.4272 7.94499C13.9874 7.5052 13.7675 6.96024 13.7675 6.3101V2.29458C13.7675 1.64445 13.9874 1.09949 14.4272 0.659693C14.867 0.219898 15.412 0 16.0621 0H24.0931V3.44187H17.2094V5.16281H21.7986C22.4487 5.16281 22.9936 5.38271 23.4334 5.8225C23.8732 6.2623 24.0931 6.80726 24.0931 7.4574V11.4729C24.0931 12.123 23.8732 12.668 23.4334 13.1078C22.9936 13.5476 22.4487 13.7675 21.7986 13.7675H13.7675ZM30.4032 13.7675L26.3877 0H29.8296L32.1242 7.85895L34.4188 0H37.8606L33.8451 13.7675H30.4032ZM39.0079 13.7675V0H47.039C47.9951 0 48.8077 0.334627 49.477 1.00388C50.1462 1.67313 50.4809 2.4858 50.4809 3.44187V5.73646C50.4809 6.69253 50.1462 7.5052 49.477 8.17445C48.8077 8.84371 47.9951 9.17833 47.039 9.17833H42.4498V13.7675H39.0079ZM3.44188 5.73646H8.03105V3.44187H3.44188V5.73646ZM42.4498 5.73646H47.039V3.44187H42.4498V5.73646Z" fill="#BBA8A7"/>
</svg>
