<svg width="27" height="27" viewBox="0 0 27 27" fill="none" xmlns="http://www.w3.org/2000/svg">
<g clip-path="url(#clip0_4_43)">
<path d="M1.00261 7.28759L15.6236 7.30477C16.334 7.24175 16.6721 6.68602 16.7294 6.02142C16.8382 4.81829 16.8268 2.5667 16.7294 1.3521C16.6778 0.664592 16.357 0.0973978 15.6179 0.0114594H1.1573C0.607298 0.0458347 0.160418 0.475527 0.0515622 1.01408C0.154688 2.68128 -0.103127 4.54901 0.045833 6.1933C0.0916668 6.73185 0.475525 7.16154 1.00261 7.28759Z" fill="#7D5B59"/>
<path d="M23.1747 7.3105C25.1935 7.3105 26.83 5.67399 26.83 3.65525C26.83 1.63651 25.1935 0 23.1747 0C21.156 0 19.5195 1.63651 19.5195 3.65525C19.5195 5.67399 21.156 7.3105 23.1747 7.3105Z" fill="#7D5B59"/>
<path d="M25.3404 9.79699H1.46668C0.656657 9.79699 0 10.4536 0 11.2637V25.4091C0 26.2192 0.656657 26.8758 1.46668 26.8758H25.3404C26.1504 26.8758 26.8071 26.2192 26.8071 25.4091V11.2637C26.8071 10.4536 26.1504 9.79699 25.3404 9.79699Z" fill="#7D5B59"/>
</g>
<defs>
<clipPath id="clip0_4_43">
<rect width="26.83" height="26.8816" fill="white"/>
</clipPath>
</defs>
</svg>
