<svg width="22" height="26" viewBox="0 0 22 26" fill="none" xmlns="http://www.w3.org/2000/svg">
<g clip-path="url(#clip0_4_38)">
<path d="M20.9387 0L21.22 5.92991H20.5112C20.376 4.88569 20.1866 4.13904 19.9539 3.68996C19.5698 2.97037 19.0558 2.44014 18.4174 2.09387C17.7789 1.74759 16.9349 1.57987 15.8907 1.57987H12.3305V20.8954C12.3305 22.4482 12.4983 23.4167 12.8337 23.8062C13.3044 24.3256 14.0348 24.5907 15.0141 24.5907H15.8907V25.2833H5.16703V24.5907H6.05976C7.13104 24.5907 7.88851 24.2661 8.33218 23.6223C8.60811 23.2219 8.74337 22.3183 8.74337 20.9008V1.58528H5.70267C4.52318 1.58528 3.68455 1.67185 3.18679 1.84498C2.54294 2.08304 1.98566 2.53753 1.52576 3.20843C1.06587 3.87933 0.789934 4.7883 0.703366 5.92991H0L0.297578 0H20.9387Z" fill="#7D5B59"/>
</g>
<defs>
<clipPath id="clip0_4_38">
<rect width="21.22" height="25.2833" fill="white"/>
</clipPath>
</defs>
</svg>
