<?xml version="1.0" encoding="utf-8"?>
<!-- Generator: Adobe Illustrator 24.3.0, SVG Export Plug-In . SVG Version: 6.00 Build 0)  -->
<svg version="1.1" id="Layer_1" xmlns="http://www.w3.org/2000/svg" xmlns:xlink="http://www.w3.org/1999/xlink" x="0px" y="0px"
	 viewBox="0 0 29.5 24" style="enable-background:new 0 0 29.5 24;" xml:space="preserve">
<style type="text/css">
	.st0{fill:#7D5B59;}
</style>
<path class="st0" d="M29.5,13.1c0,1.4,0,2.9,0,4.3c0,3.6-2.9,6.5-6.5,6.5h-3.1c-0.6,0.1-1.1-0.4-1.2-1c0-0.1,0-0.1,0-0.2v-2
	c0-0.6,0.4-1.1,1-1.2c0,0,0.1,0,0.1,0h3.1c1.2,0,2.2-0.9,2.3-2.1c0,0,0-0.1,0-0.1v-4.2c0-1.2-0.9-2.2-2.1-2.3c-0.1,0-0.1,0-0.2,0
	H7.8l5.7,5.6c0.1,0.2,0.2,0.4,0.1,0.6c-0.1,0.3-0.4,0.3-0.7,0.3H9.3c-0.7,0-1.3-0.3-1.8-0.8L0.5,9.6C0,9.2-0.1,8.5,0.3,8
	C0.3,8,0.4,7.9,0.5,7.8c2.3-2.4,4.7-4.7,7.1-7.1C8,0.2,8.6,0,9.3,0h3.6c0.3,0,0.6,0,0.8,0.3c0.1,0.2,0,0.5-0.2,0.7l-0.1,0.1L7.6,6.6
	h15.2c3.3-0.1,6.1,2.2,6.6,5.4C29.5,12.4,29.5,12.7,29.5,13.1z"/>
</svg>
