<svg width="31" height="31" viewBox="0 0 31 31" fill="none" xmlns="http://www.w3.org/2000/svg">
<path fill-rule="evenodd" clip-rule="evenodd" d="M1.28125 0C0.941441 0 0.615551 0.134989 0.37527 0.37527C0.134989 0.615551 0 0.941441 0 1.28125V29.4688C0 29.8086 0.134989 30.1345 0.37527 30.3747C0.615551 30.615 0.941441 30.75 1.28125 30.75H29.4688C29.8086 30.75 30.1345 30.615 30.3747 30.3747C30.615 30.1345 30.75 29.8086 30.75 29.4688V1.28125C30.75 0.941441 30.615 0.615551 30.3747 0.37527C30.1345 0.134989 29.8086 0 29.4688 0H1.28125ZM5.125 10.25H20.5V7.6875H5.125V10.25ZM23.0625 10.25H25.625V7.6875H23.0625V10.25ZM20.5 16.6562H5.125V14.0938H20.5V16.6562ZM23.0625 16.6562H25.625V14.0938H23.0625V16.6562ZM20.5 23.0625H5.125V20.5H20.5V23.0625ZM23.0625 23.0625H25.625V20.5H23.0625V23.0625Z" fill="#BBA8A7"/>
</svg>
